<svg width="58" height="58" viewBox="0 0 58 58" fill="none" xmlns="http://www.w3.org/2000/svg">
<path fill-rule="evenodd" clip-rule="evenodd" d="M29 57C44.464 57 57 44.464 57 29C57 13.536 44.464 1 29 1C13.536 1 1 13.536 1 29C1 44.464 13.536 57 29 57ZM29 58C45.0163 58 58 45.0163 58 29C58 12.9837 45.0163 0 29 0C12.9837 0 0 12.9837 0 29C0 45.0163 12.9837 58 29 58Z" fill="url(#paint0_linear)"/>
<mask id="mask0" mask-type="alpha" maskUnits="userSpaceOnUse" x="7" y="15" width="44" height="28">
<path fill-rule="evenodd" clip-rule="evenodd" d="M50.025 29H7.25V28H50.025V29Z" fill="black"/>
<path fill-rule="evenodd" clip-rule="evenodd" d="M45.675 35.525H11.6V34.525H45.675V35.525Z" fill="black"/>
<path fill-rule="evenodd" clip-rule="evenodd" d="M11.6 22.475L45.675 22.475L45.675 23.475L11.6 23.475L11.6 22.475Z" fill="black"/>
<path fill-rule="evenodd" clip-rule="evenodd" d="M40.6 42.05H15.95V41.05H40.6V42.05Z" fill="black"/>
<path fill-rule="evenodd" clip-rule="evenodd" d="M15.95 15.95L40.6 15.95L40.6 16.95L15.95 16.95L15.95 15.95Z" fill="black"/>
</mask>
<g mask="url(#mask0)">
<path d="M2.17499 13.05H53.65V46.4H2.17499V13.05Z" fill="url(#paint1_linear)"/>
</g>
<defs>
<linearGradient id="paint0_linear" x1="29" y1="0" x2="29" y2="58" gradientUnits="userSpaceOnUse">
<stop stop-color="#00D8BD"/>
<stop offset="1" stop-color="#2EADF4" stop-opacity="0.51"/>
</linearGradient>
<linearGradient id="paint1_linear" x1="27.9125" y1="13.05" x2="27.9125" y2="46.4" gradientUnits="userSpaceOnUse">
<stop stop-color="white"/>
<stop offset="1" stop-color="#E5E5E5"/>
</linearGradient>
</defs>
</svg>
