<svg width="95" height="82" viewBox="0 0 95 82" fill="none" xmlns="http://www.w3.org/2000/svg">
<circle cx="47.5" cy="26.5" r="26" stroke="url(#paint0_linear)"/>
<mask id="mask0" mask-type="alpha" maskUnits="userSpaceOnUse" x="27" y="14" width="40" height="25">
<line x1="27.625" y1="26" x2="66.7125" y2="26" stroke="black"/>
<line x1="31.6" y1="31.9625" x2="62.7375" y2="31.9625" stroke="black"/>
<line x1="62.7375" y1="21.0375" x2="31.6" y2="21.0375" stroke="black"/>
<line x1="35.575" y1="37.925" x2="58.1" y2="37.925" stroke="black"/>
<line x1="58.1" y1="15.075" x2="35.575" y2="15.075" stroke="black"/>
</mask>
<g mask="url(#mask0)">
<rect x="22.9875" y="11.925" width="47.0375" height="30.475" fill="url(#paint1_linear)"/>
</g>
<path d="M4.70134 76.098C3.98268 76.098 3.33868 75.9813 2.76934 75.748C2.20001 75.5147 1.74268 75.1693 1.39734 74.712C1.06134 74.2547 0.88401 73.704 0.865344 73.06H3.41334C3.45068 73.424 3.57668 73.704 3.79134 73.9C4.00601 74.0867 4.28601 74.18 4.63134 74.18C4.98601 74.18 5.26601 74.1007 5.47134 73.942C5.67668 73.774 5.77934 73.5453 5.77934 73.256C5.77934 73.0133 5.69534 72.8127 5.52734 72.654C5.36868 72.4953 5.16801 72.3647 4.92534 72.262C4.69201 72.1593 4.35601 72.0427 3.91734 71.912C3.28268 71.716 2.76468 71.52 2.36334 71.324C1.96201 71.128 1.61668 70.8387 1.32734 70.456C1.03801 70.0733 0.893344 69.574 0.893344 68.958C0.893344 68.0433 1.22468 67.3293 1.88734 66.816C2.55001 66.2933 3.41334 66.032 4.47734 66.032C5.56001 66.032 6.43268 66.2933 7.09534 66.816C7.75801 67.3293 8.11268 68.048 8.15934 68.972H5.56934C5.55068 68.6547 5.43401 68.4073 5.21934 68.23C5.00468 68.0433 4.72934 67.95 4.39334 67.95C4.10401 67.95 3.87068 68.0293 3.69334 68.188C3.51601 68.3373 3.42734 68.5567 3.42734 68.846C3.42734 69.1633 3.57668 69.4107 3.87534 69.588C4.17401 69.7653 4.64068 69.9567 5.27534 70.162C5.91001 70.3767 6.42334 70.582 6.81534 70.778C7.21668 70.974 7.56201 71.2587 7.85134 71.632C8.14068 72.0053 8.28534 72.486 8.28534 73.074C8.28534 73.634 8.14068 74.1427 7.85134 74.6C7.57134 75.0573 7.16068 75.4213 6.61934 75.692C6.07801 75.9627 5.43868 76.098 4.70134 76.098ZM14.1126 73.97V76H12.8946C12.0266 76 11.35 75.79 10.8646 75.37C10.3793 74.9407 10.1366 74.2453 10.1366 73.284V70.176H9.18463V68.188H10.1366V66.284H12.5306V68.188H14.0986V70.176H12.5306V73.312C12.5306 73.5453 12.5866 73.7133 12.6986 73.816C12.8106 73.9187 12.9973 73.97 13.2586 73.97H14.1126ZM19.0021 76.112C18.2368 76.112 17.5461 75.9487 16.9301 75.622C16.3235 75.2953 15.8428 74.8287 15.4881 74.222C15.1428 73.6153 14.9701 72.906 14.9701 72.094C14.9701 71.2913 15.1475 70.5867 15.5021 69.98C15.8568 69.364 16.3421 68.8927 16.9581 68.566C17.5741 68.2393 18.2648 68.076 19.0301 68.076C19.7955 68.076 20.4861 68.2393 21.1021 68.566C21.7181 68.8927 22.2035 69.364 22.5581 69.98C22.9128 70.5867 23.0901 71.2913 23.0901 72.094C23.0901 72.8967 22.9081 73.606 22.5441 74.222C22.1895 74.8287 21.6995 75.2953 21.0741 75.622C20.4581 75.9487 19.7675 76.112 19.0021 76.112ZM19.0021 74.04C19.4595 74.04 19.8468 73.872 20.1641 73.536C20.4908 73.2 20.6541 72.7193 20.6541 72.094C20.6541 71.4687 20.4955 70.988 20.1781 70.652C19.8701 70.316 19.4875 70.148 19.0301 70.148C18.5635 70.148 18.1761 70.316 17.8681 70.652C17.5601 70.9787 17.4061 71.4593 17.4061 72.094C17.4061 72.7193 17.5555 73.2 17.8541 73.536C18.1621 73.872 18.5448 74.04 19.0021 74.04ZM23.8842 72.094C23.8842 71.282 24.0475 70.5727 24.3742 69.966C24.7102 69.3593 25.1722 68.8927 25.7602 68.566C26.3575 68.2393 27.0389 68.076 27.8042 68.076C28.7842 68.076 29.6009 68.3327 30.2542 68.846C30.9169 69.3593 31.3509 70.0827 31.5562 71.016H29.0082C28.7935 70.4187 28.3782 70.12 27.7622 70.12C27.3235 70.12 26.9735 70.2927 26.7122 70.638C26.4509 70.974 26.3202 71.4593 26.3202 72.094C26.3202 72.7287 26.4509 73.2187 26.7122 73.564C26.9735 73.9 27.3235 74.068 27.7622 74.068C28.3782 74.068 28.7935 73.7693 29.0082 73.172H31.5562C31.3509 74.0867 30.9169 74.8053 30.2542 75.328C29.5915 75.8507 28.7749 76.112 27.8042 76.112C27.0389 76.112 26.3575 75.9487 25.7602 75.622C25.1722 75.2953 24.7102 74.8287 24.3742 74.222C24.0475 73.6153 23.8842 72.906 23.8842 72.094ZM37.6108 76L35.2308 72.724V76H32.8368V65.64H35.2308V71.366L37.5968 68.188H40.5508L37.3028 72.108L40.5788 76H37.6108ZM50.1558 76L46.8518 71.66V76H44.4578V66.172H46.8518V70.484L50.1278 66.172H52.9418L49.1338 70.988L53.0818 76H50.1558ZM61.5836 71.968C61.5836 72.192 61.5696 72.4253 61.5416 72.668H56.1236C56.1609 73.1533 56.3149 73.5267 56.5856 73.788C56.8656 74.04 57.2062 74.166 57.6076 74.166C58.2049 74.166 58.6202 73.914 58.8536 73.41H61.4016C61.2709 73.9233 61.0329 74.3853 60.6876 74.796C60.3516 75.2067 59.9269 75.5287 59.4136 75.762C58.9002 75.9953 58.3262 76.112 57.6916 76.112C56.9262 76.112 56.2449 75.9487 55.6476 75.622C55.0502 75.2953 54.5836 74.8287 54.2476 74.222C53.9116 73.6153 53.7436 72.906 53.7436 72.094C53.7436 71.282 53.9069 70.5727 54.2336 69.966C54.5696 69.3593 55.0362 68.8927 55.6336 68.566C56.2309 68.2393 56.9169 68.076 57.6916 68.076C58.4476 68.076 59.1196 68.2347 59.7076 68.552C60.2956 68.8693 60.7529 69.322 61.0796 69.91C61.4156 70.498 61.5836 71.184 61.5836 71.968ZM59.1336 71.338C59.1336 70.9273 58.9936 70.6007 58.7136 70.358C58.4336 70.1153 58.0836 69.994 57.6636 69.994C57.2622 69.994 56.9216 70.1107 56.6416 70.344C56.3709 70.5773 56.2029 70.9087 56.1376 71.338H59.1336ZM70.2105 71.968C70.2105 72.192 70.1965 72.4253 70.1685 72.668H64.7505C64.7878 73.1533 64.9418 73.5267 65.2125 73.788C65.4925 74.04 65.8332 74.166 66.2345 74.166C66.8318 74.166 67.2472 73.914 67.4805 73.41H70.0285C69.8978 73.9233 69.6598 74.3853 69.3145 74.796C68.9785 75.2067 68.5538 75.5287 68.0405 75.762C67.5272 75.9953 66.9532 76.112 66.3185 76.112C65.5532 76.112 64.8718 75.9487 64.2745 75.622C63.6772 75.2953 63.2105 74.8287 62.8745 74.222C62.5385 73.6153 62.3705 72.906 62.3705 72.094C62.3705 71.282 62.5338 70.5727 62.8605 69.966C63.1965 69.3593 63.6632 68.8927 64.2605 68.566C64.8578 68.2393 65.5438 68.076 66.3185 68.076C67.0745 68.076 67.7465 68.2347 68.3345 68.552C68.9225 68.8693 69.3798 69.322 69.7065 69.91C70.0425 70.498 70.2105 71.184 70.2105 71.968ZM67.7605 71.338C67.7605 70.9273 67.6205 70.6007 67.3405 70.358C67.0605 70.1153 66.7105 69.994 66.2905 69.994C65.8892 69.994 65.5485 70.1107 65.2685 70.344C64.9978 70.5773 64.8298 70.9087 64.7645 71.338H67.7605ZM73.8675 69.294C74.1008 68.93 74.4228 68.636 74.8335 68.412C75.2441 68.188 75.7248 68.076 76.2755 68.076C76.9195 68.076 77.5028 68.2393 78.0255 68.566C78.5481 68.8927 78.9588 69.3593 79.2575 69.966C79.5655 70.5727 79.7195 71.2773 79.7195 72.08C79.7195 72.8827 79.5655 73.592 79.2575 74.208C78.9588 74.8147 78.5481 75.286 78.0255 75.622C77.5028 75.9487 76.9195 76.112 76.2755 76.112C75.7341 76.112 75.2535 76 74.8335 75.776C74.4228 75.552 74.1008 75.2627 73.8675 74.908V79.724H71.4735V68.188H73.8675V69.294ZM77.2835 72.08C77.2835 71.4827 77.1155 71.016 76.7795 70.68C76.4528 70.3347 76.0468 70.162 75.5615 70.162C75.0855 70.162 74.6795 70.3347 74.3435 70.68C74.0168 71.0253 73.8535 71.4967 73.8535 72.094C73.8535 72.6913 74.0168 73.1627 74.3435 73.508C74.6795 73.8533 75.0855 74.026 75.5615 74.026C76.0375 74.026 76.4435 73.8533 76.7795 73.508C77.1155 73.1533 77.2835 72.6773 77.2835 72.08ZM88.3394 71.968C88.3394 72.192 88.3254 72.4253 88.2974 72.668H82.8794C82.9168 73.1533 83.0708 73.5267 83.3414 73.788C83.6214 74.04 83.9621 74.166 84.3634 74.166C84.9608 74.166 85.3761 73.914 85.6094 73.41H88.1574C88.0268 73.9233 87.7888 74.3853 87.4434 74.796C87.1074 75.2067 86.6828 75.5287 86.1694 75.762C85.6561 75.9953 85.0821 76.112 84.4474 76.112C83.6821 76.112 83.0008 75.9487 82.4034 75.622C81.8061 75.2953 81.3394 74.8287 81.0034 74.222C80.6674 73.6153 80.4994 72.906 80.4994 72.094C80.4994 71.282 80.6628 70.5727 80.9894 69.966C81.3254 69.3593 81.7921 68.8927 82.3894 68.566C82.9868 68.2393 83.6728 68.076 84.4474 68.076C85.2034 68.076 85.8754 68.2347 86.4634 68.552C87.0514 68.8693 87.5088 69.322 87.8354 69.91C88.1714 70.498 88.3394 71.184 88.3394 71.968ZM85.8894 71.338C85.8894 70.9273 85.7494 70.6007 85.4694 70.358C85.1894 70.1153 84.8394 69.994 84.4194 69.994C84.0181 69.994 83.6774 70.1107 83.3974 70.344C83.1268 70.5773 82.9588 70.9087 82.8934 71.338H85.8894ZM91.9964 69.49C92.2764 69.0607 92.6264 68.7247 93.0464 68.482C93.4664 68.23 93.933 68.104 94.4464 68.104V70.638H93.7884C93.191 70.638 92.743 70.7687 92.4444 71.03C92.1457 71.282 91.9964 71.73 91.9964 72.374V76H89.6024V68.188H91.9964V69.49Z" fill="white"/>
<defs>
<linearGradient id="paint0_linear" x1="47.5" y1="0" x2="47.5" y2="53" gradientUnits="userSpaceOnUse">
<stop stop-color="#00D8BD"/>
<stop offset="1" stop-color="#2EADF4" stop-opacity="0.51"/>
</linearGradient>
<linearGradient id="paint1_linear" x1="46.5062" y1="11.925" x2="46.5062" y2="42.4" gradientUnits="userSpaceOnUse">
<stop stop-color="#00D8BD"/>
<stop offset="1" stop-color="#2EADF4" stop-opacity="0.51"/>
</linearGradient>
</defs>
</svg>
