<svg width="164" height="58" viewBox="0 0 164 58" fill="none" xmlns="http://www.w3.org/2000/svg">
<circle cx="29" cy="29" r="28.5" stroke="url(#paint0_linear)"/>
<mask id="mask0" mask-type="alpha" maskUnits="userSpaceOnUse" x="7" y="15" width="44" height="28">
<line x1="7.25" y1="28.5" x2="50.025" y2="28.5" stroke="black"/>
<line x1="11.6" y1="35.025" x2="45.675" y2="35.025" stroke="black"/>
<line x1="45.675" y1="22.975" x2="11.6" y2="22.975" stroke="black"/>
<line x1="15.95" y1="41.55" x2="40.6" y2="41.55" stroke="black"/>
<line x1="40.6" y1="16.45" x2="15.95" y2="16.45" stroke="black"/>
</mask>
<g mask="url(#mask0)">
<rect x="2.175" y="13.05" width="51.475" height="33.35" fill="url(#paint1_linear)"/>
</g>
<path d="M73.7013 36.098C72.9827 36.098 72.3387 35.9813 71.7693 35.748C71.2 35.5147 70.7427 35.1693 70.3973 34.712C70.0613 34.2547 69.884 33.704 69.8653 33.06H72.4133C72.4507 33.424 72.5767 33.704 72.7913 33.9C73.006 34.0867 73.286 34.18 73.6313 34.18C73.986 34.18 74.266 34.1007 74.4713 33.942C74.6767 33.774 74.7793 33.5453 74.7793 33.256C74.7793 33.0133 74.6953 32.8127 74.5273 32.654C74.3687 32.4953 74.168 32.3647 73.9253 32.262C73.692 32.1593 73.356 32.0427 72.9173 31.912C72.2827 31.716 71.7647 31.52 71.3633 31.324C70.962 31.128 70.6167 30.8387 70.3273 30.456C70.038 30.0733 69.8933 29.574 69.8933 28.958C69.8933 28.0433 70.2247 27.3293 70.8873 26.816C71.55 26.2933 72.4133 26.032 73.4773 26.032C74.56 26.032 75.4327 26.2933 76.0953 26.816C76.758 27.3293 77.1127 28.048 77.1593 28.972H74.5693C74.5507 28.6547 74.434 28.4073 74.2193 28.23C74.0047 28.0433 73.7293 27.95 73.3933 27.95C73.104 27.95 72.8707 28.0293 72.6933 28.188C72.516 28.3373 72.4273 28.5567 72.4273 28.846C72.4273 29.1633 72.5767 29.4107 72.8753 29.588C73.174 29.7653 73.6407 29.9567 74.2753 30.162C74.91 30.3767 75.4233 30.582 75.8153 30.778C76.2167 30.974 76.562 31.2587 76.8513 31.632C77.1407 32.0053 77.2853 32.486 77.2853 33.074C77.2853 33.634 77.1407 34.1427 76.8513 34.6C76.5713 35.0573 76.1607 35.4213 75.6193 35.692C75.078 35.9627 74.4387 36.098 73.7013 36.098ZM83.1126 33.97V36H81.8946C81.0266 36 80.35 35.79 79.8646 35.37C79.3793 34.9407 79.1366 34.2453 79.1366 33.284V30.176H78.1846V28.188H79.1366V26.284H81.5306V28.188H83.0986V30.176H81.5306V33.312C81.5306 33.5453 81.5866 33.7133 81.6986 33.816C81.8106 33.9187 81.9973 33.97 82.2586 33.97H83.1126ZM88.0021 36.112C87.2368 36.112 86.5461 35.9487 85.9301 35.622C85.3235 35.2953 84.8428 34.8287 84.4881 34.222C84.1428 33.6153 83.9701 32.906 83.9701 32.094C83.9701 31.2913 84.1475 30.5867 84.5021 29.98C84.8568 29.364 85.3421 28.8927 85.9581 28.566C86.5741 28.2393 87.2648 28.076 88.0301 28.076C88.7955 28.076 89.4861 28.2393 90.1021 28.566C90.7181 28.8927 91.2035 29.364 91.5581 29.98C91.9128 30.5867 92.0901 31.2913 92.0901 32.094C92.0901 32.8967 91.9081 33.606 91.5441 34.222C91.1895 34.8287 90.6995 35.2953 90.0741 35.622C89.4581 35.9487 88.7675 36.112 88.0021 36.112ZM88.0021 34.04C88.4595 34.04 88.8468 33.872 89.1641 33.536C89.4908 33.2 89.6541 32.7193 89.6541 32.094C89.6541 31.4687 89.4955 30.988 89.1781 30.652C88.8701 30.316 88.4875 30.148 88.0301 30.148C87.5635 30.148 87.1761 30.316 86.8681 30.652C86.5601 30.9787 86.4061 31.4593 86.4061 32.094C86.4061 32.7193 86.5555 33.2 86.8541 33.536C87.1621 33.872 87.5448 34.04 88.0021 34.04ZM92.8842 32.094C92.8842 31.282 93.0475 30.5727 93.3742 29.966C93.7102 29.3593 94.1722 28.8927 94.7602 28.566C95.3575 28.2393 96.0389 28.076 96.8042 28.076C97.7842 28.076 98.6009 28.3327 99.2542 28.846C99.9169 29.3593 100.351 30.0827 100.556 31.016H98.0082C97.7935 30.4187 97.3782 30.12 96.7622 30.12C96.3235 30.12 95.9735 30.2927 95.7122 30.638C95.4509 30.974 95.3202 31.4593 95.3202 32.094C95.3202 32.7287 95.4509 33.2187 95.7122 33.564C95.9735 33.9 96.3235 34.068 96.7622 34.068C97.3782 34.068 97.7935 33.7693 98.0082 33.172H100.556C100.351 34.0867 99.9169 34.8053 99.2542 35.328C98.5915 35.8507 97.7749 36.112 96.8042 36.112C96.0389 36.112 95.3575 35.9487 94.7602 35.622C94.1722 35.2953 93.7102 34.8287 93.3742 34.222C93.0475 33.6153 92.8842 32.906 92.8842 32.094ZM106.611 36L104.231 32.724V36H101.837V25.64H104.231V31.366L106.597 28.188H109.551L106.303 32.108L109.579 36H106.611ZM119.156 36L115.852 31.66V36H113.458V26.172H115.852V30.484L119.128 26.172H121.942L118.134 30.988L122.082 36H119.156ZM130.584 31.968C130.584 32.192 130.57 32.4253 130.542 32.668H125.124C125.161 33.1533 125.315 33.5267 125.586 33.788C125.866 34.04 126.206 34.166 126.608 34.166C127.205 34.166 127.62 33.914 127.854 33.41H130.402C130.271 33.9233 130.033 34.3853 129.688 34.796C129.352 35.2067 128.927 35.5287 128.414 35.762C127.9 35.9953 127.326 36.112 126.692 36.112C125.926 36.112 125.245 35.9487 124.648 35.622C124.05 35.2953 123.584 34.8287 123.248 34.222C122.912 33.6153 122.744 32.906 122.744 32.094C122.744 31.282 122.907 30.5727 123.234 29.966C123.57 29.3593 124.036 28.8927 124.634 28.566C125.231 28.2393 125.917 28.076 126.692 28.076C127.448 28.076 128.12 28.2347 128.708 28.552C129.296 28.8693 129.753 29.322 130.08 29.91C130.416 30.498 130.584 31.184 130.584 31.968ZM128.134 31.338C128.134 30.9273 127.994 30.6007 127.714 30.358C127.434 30.1153 127.084 29.994 126.664 29.994C126.262 29.994 125.922 30.1107 125.642 30.344C125.371 30.5773 125.203 30.9087 125.138 31.338H128.134ZM139.211 31.968C139.211 32.192 139.197 32.4253 139.169 32.668H133.751C133.788 33.1533 133.942 33.5267 134.213 33.788C134.493 34.04 134.833 34.166 135.235 34.166C135.832 34.166 136.247 33.914 136.481 33.41H139.029C138.898 33.9233 138.66 34.3853 138.315 34.796C137.979 35.2067 137.554 35.5287 137.041 35.762C136.527 35.9953 135.953 36.112 135.319 36.112C134.553 36.112 133.872 35.9487 133.275 35.622C132.677 35.2953 132.211 34.8287 131.875 34.222C131.539 33.6153 131.371 32.906 131.371 32.094C131.371 31.282 131.534 30.5727 131.861 29.966C132.197 29.3593 132.663 28.8927 133.261 28.566C133.858 28.2393 134.544 28.076 135.319 28.076C136.075 28.076 136.747 28.2347 137.335 28.552C137.923 28.8693 138.38 29.322 138.707 29.91C139.043 30.498 139.211 31.184 139.211 31.968ZM136.761 31.338C136.761 30.9273 136.621 30.6007 136.341 30.358C136.061 30.1153 135.711 29.994 135.291 29.994C134.889 29.994 134.549 30.1107 134.269 30.344C133.998 30.5773 133.83 30.9087 133.765 31.338H136.761ZM142.867 29.294C143.101 28.93 143.423 28.636 143.833 28.412C144.244 28.188 144.725 28.076 145.275 28.076C145.919 28.076 146.503 28.2393 147.025 28.566C147.548 28.8927 147.959 29.3593 148.257 29.966C148.565 30.5727 148.719 31.2773 148.719 32.08C148.719 32.8827 148.565 33.592 148.257 34.208C147.959 34.8147 147.548 35.286 147.025 35.622C146.503 35.9487 145.919 36.112 145.275 36.112C144.734 36.112 144.253 36 143.833 35.776C143.423 35.552 143.101 35.2627 142.867 34.908V39.724H140.473V28.188H142.867V29.294ZM146.283 32.08C146.283 31.4827 146.115 31.016 145.779 30.68C145.453 30.3347 145.047 30.162 144.561 30.162C144.085 30.162 143.679 30.3347 143.343 30.68C143.017 31.0253 142.853 31.4967 142.853 32.094C142.853 32.6913 143.017 33.1627 143.343 33.508C143.679 33.8533 144.085 34.026 144.561 34.026C145.037 34.026 145.443 33.8533 145.779 33.508C146.115 33.1533 146.283 32.6773 146.283 32.08ZM157.339 31.968C157.339 32.192 157.325 32.4253 157.297 32.668H151.879C151.917 33.1533 152.071 33.5267 152.341 33.788C152.621 34.04 152.962 34.166 153.363 34.166C153.961 34.166 154.376 33.914 154.609 33.41H157.157C157.027 33.9233 156.789 34.3853 156.443 34.796C156.107 35.2067 155.683 35.5287 155.169 35.762C154.656 35.9953 154.082 36.112 153.447 36.112C152.682 36.112 152.001 35.9487 151.403 35.622C150.806 35.2953 150.339 34.8287 150.003 34.222C149.667 33.6153 149.499 32.906 149.499 32.094C149.499 31.282 149.663 30.5727 149.989 29.966C150.325 29.3593 150.792 28.8927 151.389 28.566C151.987 28.2393 152.673 28.076 153.447 28.076C154.203 28.076 154.875 28.2347 155.463 28.552C156.051 28.8693 156.509 29.322 156.835 29.91C157.171 30.498 157.339 31.184 157.339 31.968ZM154.889 31.338C154.889 30.9273 154.749 30.6007 154.469 30.358C154.189 30.1153 153.839 29.994 153.419 29.994C153.018 29.994 152.677 30.1107 152.397 30.344C152.127 30.5773 151.959 30.9087 151.893 31.338H154.889ZM160.996 29.49C161.276 29.0607 161.626 28.7247 162.046 28.482C162.466 28.23 162.933 28.104 163.446 28.104V30.638H162.788C162.191 30.638 161.743 30.7687 161.444 31.03C161.146 31.282 160.996 31.73 160.996 32.374V36H158.602V28.188H160.996V29.49Z" fill="white"/>
<defs>
<linearGradient id="paint0_linear" x1="29" y1="0" x2="29" y2="58" gradientUnits="userSpaceOnUse">
<stop stop-color="#00D8BD"/>
<stop offset="1" stop-color="#2EADF4" stop-opacity="0.51"/>
</linearGradient>
<linearGradient id="paint1_linear" x1="27.9125" y1="13.05" x2="27.9125" y2="46.4" gradientUnits="userSpaceOnUse">
<stop stop-color="white"/>
<stop offset="1" stop-color="#E5E5E5"/>
</linearGradient>
</defs>
</svg>
